# This file uses centimeters as units for non-parametric coordinates.

v -0.500000 0.187641 3.404120
v 0.667453 0.187642 3.404119
v -0.500000 10.241611 3.404120
v 0.667453 10.241611 3.404119
v -0.500000 10.241611 -3.404119
v 0.697415 10.241611 -3.333536
v -0.500000 0.187641 -3.404120
v 0.667453 0.187642 -3.404119
v -0.342560 10.241611 -3.404120
v -0.342561 0.187642 -3.404120
v -0.342561 0.187642 3.404120
v -0.342560 10.241611 3.404120
v -0.500000 11.751347 3.404119
v -0.342560 11.751347 3.404119
v -0.342560 11.751347 -3.404119
v -0.500000 11.751347 -3.404119
vt 0.878229 0.141013
vt 0.101690 0.140227
vt 0.061073 0.719071
vt 0.102163 0.719045
vt 0.213243 0.046093
vt 0.475563 0.720308
vt 0.514105 0.143848
vt 0.471484 0.137672
vt 0.215654 0.038466
vt 0.500064 0.143812
vt 0.075172 0.140227
vt 0.876523 0.837577
vt 0.370857 0.060079
vt 0.154958 0.037912
vt 0.152681 0.045764
vt 0.515402 0.720283
vt 0.517745 0.722790
vt 0.519981 0.722598
vt 0.471353 0.720877
vt 0.471927 0.722716
vt 0.105551 0.092771
vt 0.059701 0.140227
vt 0.105433 0.136205
vt 0.103216 0.137672
vt 0.470492 0.093889
vt 0.517745 0.141013
vt 0.470419 0.137099
vt 0.474496 0.143952
vt 0.105506 0.098616
vt 0.075657 0.140227
vt 0.105506 0.098616
vt 0.876180 0.722588
vt 0.879578 0.722790
vt 0.431229 0.041969
vt 0.501728 0.719868
vt 0.431116 0.059899
vt 0.471016 0.774310
vt 0.881005 0.952397
vt 0.105264 0.772971
vt 0.076509 0.718960
vt 0.076781 0.719171
vt 0.501841 0.719868
vt 0.513443 0.951825
vt 0.500064 0.143812
vt 0.470524 0.099741
vt 0.470524 0.099741
vt 0.434328 0.818588
vt 0.370749 0.042006
vt 0.520124 0.837584
vt 0.434138 0.791446
vt 0.126730 0.818502
vt 0.514275 0.838301
vt 0.105572 0.720935
vt 0.103216 0.722716
vt 0.880897 0.839429
vt 0.126284 0.791559
vn 0.000000 0.000000 1.000000
vn 0.000000 0.000000 1.000000
vn 0.000000 0.000000 1.000000
vn 0.000000 0.000000 1.000000
vn 0.000000 1.000000 0.000000
vn 0.000000 1.000000 0.000000
vn 0.000000 1.000000 0.000000
vn 0.000000 1.000000 0.000000
vn -0.000010 0.000000 -1.000000
vn 0.029647 0.002978 -0.999556
vn -0.000002 0.000000 -1.000000
vn 0.000001 -0.000000 -1.000000
vn 0.000002 -1.000000 0.000000
vn 0.000002 -1.000000 0.000000
vn 0.000002 -1.000000 0.000000
vn 0.000002 -1.000000 0.000000
vn 0.999996 -0.002980 0.000000
vn 0.999996 -0.001498 0.002212
vn 0.999996 -0.001508 0.002197
vn 0.999990 0.000000 0.004447
vn -1.000000 0.000000 0.000000
vn -1.000000 0.000000 0.000000
vn -1.000000 0.000000 0.000000
vn -1.000000 0.000000 0.000000
vn 0.067713 0.006802 -0.997682
vn 0.035256 0.003542 -0.999372
vn 0.000000 -1.000000 0.000000
vn 0.000000 -1.000000 0.000000
vn 0.000000 -1.000000 0.000000
vn 0.000000 -1.000000 0.000000
vn 0.000002 0.000000 1.000000
vn 0.000001 0.000000 1.000000
vn 0.000001 0.000000 1.000000
vn 0.000001 0.000000 1.000000
vn 0.000000 1.000000 0.000000
vn 0.000000 1.000000 0.000000
vn 0.000000 1.000000 0.000000
vn 0.000000 1.000000 0.000000
vn 0.000000 0.000000 1.000000
vn 0.000000 0.000000 1.000000
vn 0.000000 0.000000 1.000000
vn 0.000000 0.000000 1.000000
vn 1.000000 -0.000000 0.000000
vn 1.000000 -0.000000 0.000000
vn 1.000000 -0.000000 0.000000
vn 1.000000 0.000000 0.000000
vn -0.000004 0.000001 -1.000000
vn -0.000002 0.000000 -1.000000
vn -0.000002 0.000000 -1.000000
vn 0.000000 0.000000 -1.000000
vn -1.000000 0.000000 0.000000
vn -1.000000 -0.000000 0.000000
vn -1.000000 -0.000000 0.000000
vn -1.000000 -0.000000 0.000000
f 1/22/1 11/11/2 3/3/3
f 3/3/3 11/11/2 12/41/4
f 13/47/5 14/50/6 16/51/7
f 16/51/7 14/50/6 15/56/8
f 5/16/9 9/42/10 7/7/11
f 7/7/11 9/42/10 10/10/12
f 7/25/13 10/46/14 1/21/15
f 1/21/15 10/46/14 11/29/16
f 8/8/17 6/20/18 2/24/19
f 2/24/19 6/20/18 4/54/20
f 7/26/21 1/1/22 5/17/23
f 5/17/23 1/1/22 3/33/24
f 6/6/25 8/28/26 9/35/10
f 9/35/10 8/28/26 10/44/12
f 11/31/27 10/45/28 2/23/29
f 2/23/29 10/45/28 8/27/30
f 12/40/31 11/30/32 4/4/33
f 4/4/33 11/30/32 2/2/34
f 12/39/35 4/53/36 9/37/37
f 9/37/37 4/53/36 6/19/38
f 3/34/39 12/36/40 13/48/41
f 13/48/41 12/36/40 14/13/42
f 12/38/43 9/43/44 14/55/45
f 14/55/45 9/43/44 15/52/46
f 9/9/47 5/5/48 15/14/49
f 15/14/49 5/5/48 16/15/50
f 5/18/51 3/32/52 16/49/53
f 16/49/53 3/32/52 13/12/54
v -0.500000 0.187641 3.404120
v 0.667453 0.187642 3.404119
v -0.500000 10.241611 3.404120
v 0.667453 10.241611 3.404119
v -0.500000 10.241611 -3.404119
v 0.697415 10.241611 -3.333536
v -0.500000 0.187641 -3.404120
v 0.667453 0.187642 -3.404119
v -0.342560 10.241611 -3.404120
v -0.342561 0.187642 -3.404120
v -0.342561 0.187642 3.404120
v -0.342560 10.241611 3.404120
v -0.500000 11.751347 3.404119
v -0.342560 11.751347 3.404119
v -0.342560 11.751347 -3.404119
v -0.500000 11.751347 -3.404119
vt 0.878229 0.141013
vt 0.101690 0.140227
vt 0.061073 0.719071
vt 0.102163 0.719045
vt 0.213243 0.046093
vt 0.475563 0.720308
vt 0.514105 0.143848
vt 0.471484 0.137672
vt 0.215654 0.038466
vt 0.500064 0.143812
vt 0.075172 0.140227
vt 0.876523 0.837577
vt 0.370857 0.060079
vt 0.154958 0.037912
vt 0.152681 0.045764
vt 0.515402 0.720283
vt 0.517745 0.722790
vt 0.519981 0.722598
vt 0.471353 0.720877
vt 0.471927 0.722716
vt 0.105551 0.092771
vt 0.059701 0.140227
vt 0.105433 0.136205
vt 0.103216 0.137672
vt 0.470492 0.093889
vt 0.517745 0.141013
vt 0.470419 0.137099
vt 0.474496 0.143952
vt 0.105506 0.098616
vt 0.075657 0.140227
vt 0.105506 0.098616
vt 0.876180 0.722588
vt 0.879578 0.722790
vt 0.431229 0.041969
vt 0.501728 0.719868
vt 0.431116 0.059899
vt 0.471016 0.774310
vt 0.881005 0.952397
vt 0.105264 0.772971
vt 0.076509 0.718960
vt 0.076781 0.719171
vt 0.501841 0.719868
vt 0.513443 0.951825
vt 0.500064 0.143812
vt 0.470524 0.099741
vt 0.470524 0.099741
vt 0.434328 0.818588
vt 0.370749 0.042006
vt 0.520124 0.837584
vt 0.434138 0.791446
vt 0.126730 0.818502
vt 0.514275 0.838301
vt 0.105572 0.720935
vt 0.103216 0.722716
vt 0.880897 0.839429
vt 0.126284 0.791559
vn 0.000000 0.000000 1.000000
vn 0.000000 0.000000 1.000000
vn 0.000000 0.000000 1.000000
vn 0.000000 0.000000 1.000000
vn 0.000000 1.000000 0.000000
vn 0.000000 1.000000 0.000000
vn 0.000000 1.000000 0.000000
vn 0.000000 1.000000 0.000000
vn -0.000010 0.000000 -1.000000
vn 0.029647 0.002978 -0.999556
vn -0.000002 0.000000 -1.000000
vn 0.000001 -0.000000 -1.000000
vn 0.000002 -1.000000 0.000000
vn 0.000002 -1.000000 0.000000
vn 0.000002 -1.000000 0.000000
vn 0.000002 -1.000000 0.000000
vn 0.999996 -0.002980 0.000000
vn 0.999996 -0.001498 0.002212
vn 0.999996 -0.001508 0.002197
vn 0.999990 0.000000 0.004447
vn -1.000000 0.000000 0.000000
vn -1.000000 0.000000 0.000000
vn -1.000000 0.000000 0.000000
vn -1.000000 0.000000 0.000000
vn 0.067713 0.006802 -0.997682
vn 0.035256 0.003542 -0.999372
vn 0.000000 -1.000000 0.000000
vn 0.000000 -1.000000 0.000000
vn 0.000000 -1.000000 0.000000
vn 0.000000 -1.000000 0.000000
vn 0.000002 0.000000 1.000000
vn 0.000001 0.000000 1.000000
vn 0.000001 0.000000 1.000000
vn 0.000001 0.000000 1.000000
vn 0.000000 1.000000 0.000000
vn 0.000000 1.000000 0.000000
vn 0.000000 1.000000 0.000000
vn 0.000000 1.000000 0.000000
vn 0.000000 0.000000 1.000000
vn 0.000000 0.000000 1.000000
vn 0.000000 0.000000 1.000000
vn 0.000000 0.000000 1.000000
vn 1.000000 -0.000000 0.000000
vn 1.000000 -0.000000 0.000000
vn 1.000000 -0.000000 0.000000
vn 1.000000 0.000000 0.000000
vn -0.000004 0.000001 -1.000000
vn -0.000002 0.000000 -1.000000
vn -0.000002 0.000000 -1.000000
vn 0.000000 0.000000 -1.000000
vn -1.000000 0.000000 0.000000
vn -1.000000 -0.000000 0.000000
vn -1.000000 -0.000000 0.000000
vn -1.000000 -0.000000 0.000000
f 17/78/55 27/67/56 19/59/57
f 19/59/57 27/67/56 28/97/58
f 29/103/59 30/106/60 32/107/61
f 32/107/61 30/106/60 31/112/62
f 21/72/63 25/98/64 23/63/65
f 23/63/65 25/98/64 26/66/66
f 23/81/67 26/102/68 17/77/69
f 17/77/69 26/102/68 27/85/70
f 24/64/71 22/76/72 18/80/73
f 18/80/73 22/76/72 20/110/74
f 23/82/75 17/57/76 21/73/77
f 21/73/77 17/57/76 19/89/78
f 22/62/79 24/84/80 25/91/64
f 25/91/64 24/84/80 26/100/66
f 27/87/81 26/101/82 18/79/83
f 18/79/83 26/101/82 24/83/84
f 28/96/85 27/86/86 20/60/87
f 20/60/87 27/86/86 18/58/88
f 28/95/89 20/109/90 25/93/91
f 25/93/91 20/109/90 22/75/92
f 19/90/93 28/92/94 29/104/95
f 29/104/95 28/92/94 30/69/96
f 28/94/97 25/99/98 30/111/99
f 30/111/99 25/99/98 31/108/100
f 25/65/101 21/61/102 31/70/103
f 31/70/103 21/61/102 32/71/104
f 21/74/105 19/88/106 32/105/107
f 32/105/107 19/88/106 29/68/108
