# This file uses centimeters as units for non-parametric coordinates.

v -0.500000 -0.421885 0.500000
v -0.333333 -0.421885 0.500000
v 0.333333 -0.421885 0.500000
v 0.500000 -0.421885 0.500000
v -0.500000 0.421885 0.500000
v -0.333333 0.421885 0.500000
v 0.333333 0.421885 0.500000
v 0.500000 0.421885 0.500000
v -0.500000 0.421885 0.333333
v -0.333333 0.500000 0.333333
v 0.333333 0.500000 0.333333
v 0.500000 0.421885 0.333333
v -0.500000 0.421885 -0.333333
v -0.333333 0.500000 -0.333333
v 0.333333 0.500000 -0.333333
v 0.500000 0.421885 -0.333333
v -0.500000 0.421885 -0.500000
v -0.333333 0.421885 -0.500000
v 0.333333 0.421885 -0.500000
v 0.500000 0.421885 -0.500000
v -0.500000 -0.421885 -0.500000
v -0.333333 -0.421885 -0.500000
v 0.333333 -0.421885 -0.500000
v 0.500000 -0.421885 -0.500000
v -0.500000 -0.421885 -0.333333
v -0.333333 -0.500000 -0.333333
v 0.333333 -0.500000 -0.333333
v 0.500000 -0.421885 -0.333333
v -0.500000 -0.421885 0.333333
v -0.333333 -0.500000 0.333333
v 0.333333 -0.500000 0.333333
v 0.500000 -0.421885 0.333333
vt 0.375000 0.000000
vt 0.416667 0.000000
vt 0.583333 0.000000
vt 0.625000 0.000000
vt 0.375000 0.250000
vt 0.416667 0.250000
vt 0.583333 0.250000
vt 0.625000 0.250000
vt 0.375000 0.291667
vt 0.416667 0.291667
vt 0.583333 0.291667
vt 0.625000 0.291667
vt 0.375000 0.458333
vt 0.416667 0.458333
vt 0.583333 0.458333
vt 0.625000 0.458333
vt 0.375000 0.500000
vt 0.416667 0.500000
vt 0.583333 0.500000
vt 0.625000 0.500000
vt 0.375000 0.750000
vt 0.416667 0.750000
vt 0.583333 0.750000
vt 0.625000 0.750000
vt 0.375000 0.791667
vt 0.416667 0.791667
vt 0.583333 0.791667
vt 0.625000 0.791667
vt 0.375000 0.958333
vt 0.416667 0.958333
vt 0.583333 0.958333
vt 0.625000 0.958333
vt 0.375000 1.000000
vt 0.416667 1.000000
vt 0.583333 1.000000
vt 0.625000 1.000000
vt 0.833333 0.000000
vt 0.666667 0.000000
vt 0.875000 0.000000
vt 0.875000 0.250000
vt 0.833333 0.250000
vt 0.666667 0.250000
vt 0.166667 0.000000
vt 0.333333 0.000000
vt 0.125000 0.000000
vt 0.125000 0.250000
vt 0.166667 0.250000
vt 0.333333 0.250000
vn 0.000000 0.000000 1.000000
vn 0.000000 0.000000 1.000000
vn 0.000000 0.000000 1.000000
vn 0.000000 0.000000 1.000000
vn 0.000000 0.000000 1.000000
vn 0.000000 0.000000 1.000000
vn 0.000000 0.000000 1.000000
vn 0.000000 0.000000 1.000000
vn 0.000000 1.000000 0.000000
vn -0.047551 0.920164 0.388635
vn -0.388635 0.920164 0.047551
vn -0.091232 0.991642 0.091232
vn 0.091232 0.991642 0.091232
vn 0.047551 0.920164 0.388635
vn -0.000000 1.000000 0.000000
vn 0.388635 0.920164 0.047551
vn -0.091232 0.991642 -0.091232
vn -0.388635 0.920164 -0.047551
vn 0.091232 0.991642 -0.091232
vn 0.388635 0.920164 -0.047551
vn -0.047551 0.920164 -0.388635
vn 0.000000 1.000000 0.000000
vn 0.047551 0.920164 -0.388635
vn -0.000000 1.000000 0.000000
vn 0.000000 0.000000 -1.000000
vn 0.000000 0.000000 -1.000000
vn 0.000000 0.000000 -1.000000
vn 0.000000 0.000000 -1.000000
vn 0.000000 0.000000 -1.000000
vn 0.000000 0.000000 -1.000000
vn 0.000000 0.000000 -1.000000
vn 0.000000 0.000000 -1.000000
vn 0.000000 -1.000000 0.000000
vn -0.047551 -0.920164 -0.388635
vn -0.388635 -0.920164 -0.047551
vn -0.091232 -0.991642 -0.091232
vn 0.091232 -0.991642 -0.091232
vn 0.047551 -0.920164 -0.388635
vn 0.000000 -1.000000 0.000000
vn 0.388635 -0.920164 -0.047551
vn -0.091232 -0.991642 0.091232
vn -0.388635 -0.920164 0.047551
vn 0.091232 -0.991642 0.091232
vn 0.388635 -0.920164 0.047551
vn -0.047551 -0.920164 0.388635
vn 0.000000 -1.000000 0.000000
vn 0.047551 -0.920164 0.388635
vn 0.000000 -1.000000 0.000000
vn 1.000000 0.000000 0.000000
vn 1.000000 0.000000 0.000000
vn 1.000000 0.000000 0.000000
vn 1.000000 0.000000 0.000000
vn 1.000000 0.000000 0.000000
vn 1.000000 0.000000 0.000000
vn 1.000000 0.000000 0.000000
vn 1.000000 0.000000 0.000000
vn -1.000000 0.000000 0.000000
vn -1.000000 0.000000 0.000000
vn -1.000000 0.000000 0.000000
vn -1.000000 0.000000 0.000000
vn -1.000000 0.000000 0.000000
vn -1.000000 0.000000 0.000000
vn -1.000000 0.000000 0.000000
vn -1.000000 0.000000 0.000000
f 5/5/1 1/1/2 6/6/3
f 6/6/3 1/1/2 2/2/4
f 6/6/3 2/2/4 7/7/5
f 7/7/5 2/2/4 3/3/6
f 7/7/5 3/3/6 8/8/7
f 8/8/7 3/3/6 4/4/8
f 5/5/9 6/6/10 9/9/11
f 9/9/11 6/6/10 10/10/12
f 10/10/12 6/6/10 11/11/13
f 11/11/13 6/6/10 7/7/14
f 8/8/15 12/12/16 7/7/14
f 7/7/14 12/12/16 11/11/13
f 10/10/12 14/14/17 9/9/11
f 9/9/11 14/14/17 13/13/18
f 11/11/13 15/15/19 10/10/12
f 10/10/12 15/15/19 14/14/17
f 16/16/20 15/15/19 12/12/16
f 12/12/16 15/15/19 11/11/13
f 14/14/17 18/18/21 13/13/18
f 13/13/18 18/18/21 17/17/22
f 18/18/21 14/14/17 19/19/23
f 19/19/23 14/14/17 15/15/19
f 15/15/19 16/16/20 19/19/23
f 19/19/23 16/16/20 20/20/24
f 21/21/25 17/17/26 22/22/27
f 22/22/27 17/17/26 18/18/28
f 22/22/27 18/18/28 23/23/29
f 23/23/29 18/18/28 19/19/30
f 23/23/29 19/19/30 24/24/31
f 24/24/31 19/19/30 20/20/32
f 21/21/33 22/22/34 25/25/35
f 25/25/35 22/22/34 26/26/36
f 26/26/36 22/22/34 27/27/37
f 27/27/37 22/22/34 23/23/38
f 24/24/39 28/28/40 23/23/38
f 23/23/38 28/28/40 27/27/37
f 26/26/36 30/30/41 25/25/35
f 25/25/35 30/30/41 29/29/42
f 27/27/37 31/31/43 26/26/36
f 26/26/36 31/31/43 30/30/41
f 32/32/44 31/31/43 28/28/40
f 28/28/40 31/31/43 27/27/37
f 30/30/41 2/34/45 29/29/42
f 29/29/42 2/34/45 1/33/46
f 2/34/45 30/30/41 3/35/47
f 3/35/47 30/30/41 31/31/43
f 31/31/43 32/32/44 3/35/47
f 3/35/47 32/32/44 4/36/48
f 16/41/49 28/37/50 20/40/51
f 20/40/51 28/37/50 24/39/52
f 16/41/49 12/42/53 28/37/50
f 28/37/50 12/42/53 32/38/54
f 8/8/55 4/4/56 12/42/53
f 12/42/53 4/4/56 32/38/54
f 17/46/57 21/45/58 13/47/59
f 13/47/59 21/45/58 25/43/60
f 9/48/61 13/47/59 29/44/62
f 29/44/62 13/47/59 25/43/60
f 9/48/61 29/44/62 5/5/63
f 5/5/63 29/44/62 1/1/64
